<svg width="626" height="164" viewBox="0 0 626 164" fill="none" xmlns="http://www.w3.org/2000/svg">
<g clip-path="url(#clip0)">
<path d="M82 0C36.7 0 0 36.7 0 82C0 127.3 36.7 164 82 164C127.3 164 164 127.3 164 82C164 36.7 127.3 0 82 0ZM132 84C125.1 84 119.5 89.6 119.5 96.5V109H94.5H69.5H44.5V96.5C44.5 89.6 38.9 84 32 84V59H44.5H57V71.5H69.5V59H82H94.5V71.5H107V59H132V84Z" fill="#0C2053"/>
<path d="M280.2 110V131C274 134.6 266.6 136.7 258.7 136.7C233.6 136.7 214.5 117.3 214.5 92.8C214.5 68.3 233.6 49 258.7 49C266.6 49 274 51.1 280.2 54.7V75.7C275.4 70.7 268.5 67.8 260.4 67.8C245.8 67.8 234.9 78.5 234.9 92.9C234.9 107.3 245.7 118 260.4 118C268.5 117.9 275.3 115 280.2 110Z" fill="#0C2053"/>
<path d="M373 51.2V134.4H354.4V127C347.7 133 339.1 136.6 329.5 136.6C305.4 136.6 287 117.2 287 92.7C287 68.2 305.4 49 329.5 49C339.1 49 347.7 52.6 354.4 58.6V51.2H373ZM355 92.8C355 78.4 344.9 67.7 331.3 67.7C317.7 67.7 307.6 78.4 307.6 92.8C307.6 107.2 317.7 117.9 331.3 117.9C344.8 117.9 355 107.3 355 92.8Z" fill="#0C2053"/>
<path d="M385.4 114.7L404.8 111.3C406 115.9 410.3 119.2 415.3 119.2C420.6 119.2 424.2 115.6 424.2 110.9C424.2 107.5 422.7 105.1 417.5 103L404.3 97.7C394.5 93.7 386.8 86 386.8 73.8C386.8 59.9 399 49 414.8 49C427.2 49 437.5 55.9 441.3 65.5L422.9 72.4C421.9 69 418.6 66.6 414.8 66.6C410.5 66.6 407.1 69.4 407.1 73.5C407.1 76.6 408.5 78.5 412.8 80.2L425.4 85.2C437.8 90.2 444.7 99 444.7 110.7C444.7 125.3 432.1 136.8 415.5 136.8C400.2 136.7 387.7 127.2 385.4 114.7Z" fill="#0C2053"/>
<path d="M463.3 67.6001H447.8V51.2001H463.3V19.6001H483.1V51.2001H501.2V67.5001H483.1V134.4H463.3V67.6001Z" fill="#0C2053"/>
<path d="M530.2 0.600098V134.4H510.4V0.600098H530.2Z" fill="#0C2053"/>
<path d="M624.8 98.9001H563.2C564.7 110.1 574.4 118 586.8 118C595.7 118 603.3 113.2 607.3 106L623.1 116.1C615.7 128.5 602.1 136.7 586.1 136.7C561.3 136.7 542.8 117.4 542.8 92.8001C542.8 67.9001 560.5 48.9001 584.1 48.9001C607.8 48.9001 625.2 67.8001 625.2 92.8001C625.2 94.9001 625 97.0001 624.8 98.9001ZM563.3 84.2001H604.8C603.4 73.9001 595.3 66.3001 584.3 66.3001C573.3 66.3001 564.8 73.9001 563.3 84.2001Z" fill="#0C2053"/>
</g>
<defs>
<clipPath id="clip0">
<rect width="625.2" height="164" fill="white"/>
</clipPath>
</defs>
</svg>
